<svg xmlns="http://www.w3.org/2000/svg" viewBox="0 0 2400 1600" width="2400" height="1600">
  <rect width="2400" height="1600" fill="#FFFFFF"/>
  <g opacity="0.5"><line x1="0" y1="0" x2="0" y2="1600" stroke="#C9C3B8" stroke-width="1"/><line x1="100" y1="0" x2="100" y2="1600" stroke="#C9C3B8" stroke-width="1"/><line x1="200" y1="0" x2="200" y2="1600" stroke="#C9C3B8" stroke-width="1"/><line x1="300" y1="0" x2="300" y2="1600" stroke="#C9C3B8" stroke-width="1"/><line x1="400" y1="0" x2="400" y2="1600" stroke="#C9C3B8" stroke-width="1"/><line x1="500" y1="0" x2="500" y2="1600" stroke="#C9C3B8" stroke-width="1"/><line x1="600" y1="0" x2="600" y2="1600" stroke="#C9C3B8" stroke-width="1"/><line x1="700" y1="0" x2="700" y2="1600" stroke="#C9C3B8" stroke-width="1"/><line x1="800" y1="0" x2="800" y2="1600" stroke="#C9C3B8" stroke-width="1"/><line x1="900" y1="0" x2="900" y2="1600" stroke="#C9C3B8" stroke-width="1"/><line x1="1000" y1="0" x2="1000" y2="1600" stroke="#C9C3B8" stroke-width="1"/><line x1="1100" y1="0" x2="1100" y2="1600" stroke="#C9C3B8" stroke-width="1"/><line x1="1200" y1="0" x2="1200" y2="1600" stroke="#C9C3B8" stroke-width="1"/><line x1="1300" y1="0" x2="1300" y2="1600" stroke="#C9C3B8" stroke-width="1"/><line x1="1400" y1="0" x2="1400" y2="1600" stroke="#C9C3B8" stroke-width="1"/><line x1="1500" y1="0" x2="1500" y2="1600" stroke="#C9C3B8" stroke-width="1"/><line x1="1600" y1="0" x2="1600" y2="1600" stroke="#C9C3B8" stroke-width="1"/><line x1="1700" y1="0" x2="1700" y2="1600" stroke="#C9C3B8" stroke-width="1"/><line x1="1800" y1="0" x2="1800" y2="1600" stroke="#C9C3B8" stroke-width="1"/><line x1="1900" y1="0" x2="1900" y2="1600" stroke="#C9C3B8" stroke-width="1"/><line x1="2000" y1="0" x2="2000" y2="1600" stroke="#C9C3B8" stroke-width="1"/><line x1="2100" y1="0" x2="2100" y2="1600" stroke="#C9C3B8" stroke-width="1"/><line x1="2200" y1="0" x2="2200" y2="1600" stroke="#C9C3B8" stroke-width="1"/><line x1="2300" y1="0" x2="2300" y2="1600" stroke="#C9C3B8" stroke-width="1"/><line x1="2400" y1="0" x2="2400" y2="1600" stroke="#C9C3B8" stroke-width="1"/><line x1="0" y1="0" x2="2400" y2="0" stroke="#C9C3B8" stroke-width="1"/><line x1="0" y1="100" x2="2400" y2="100" stroke="#C9C3B8" stroke-width="1"/><line x1="0" y1="200" x2="2400" y2="200" stroke="#C9C3B8" stroke-width="1"/><line x1="0" y1="300" x2="2400" y2="300" stroke="#C9C3B8" stroke-width="1"/><line x1="0" y1="400" x2="2400" y2="400" stroke="#C9C3B8" stroke-width="1"/><line x1="0" y1="500" x2="2400" y2="500" stroke="#C9C3B8" stroke-width="1"/><line x1="0" y1="600" x2="2400" y2="600" stroke="#C9C3B8" stroke-width="1"/><line x1="0" y1="700" x2="2400" y2="700" stroke="#C9C3B8" stroke-width="1"/><line x1="0" y1="800" x2="2400" y2="800" stroke="#C9C3B8" stroke-width="1"/><line x1="0" y1="900" x2="2400" y2="900" stroke="#C9C3B8" stroke-width="1"/><line x1="0" y1="1000" x2="2400" y2="1000" stroke="#C9C3B8" stroke-width="1"/><line x1="0" y1="1100" x2="2400" y2="1100" stroke="#C9C3B8" stroke-width="1"/><line x1="0" y1="1200" x2="2400" y2="1200" stroke="#C9C3B8" stroke-width="1"/><line x1="0" y1="1300" x2="2400" y2="1300" stroke="#C9C3B8" stroke-width="1"/><line x1="0" y1="1400" x2="2400" y2="1400" stroke="#C9C3B8" stroke-width="1"/><line x1="0" y1="1500" x2="2400" y2="1500" stroke="#C9C3B8" stroke-width="1"/><line x1="0" y1="1600" x2="2400" y2="1600" stroke="#C9C3B8" stroke-width="1"/></g>
  <rect x="420" y="380" width="500" height="300" fill="#F1EEE8" stroke="#14152E" stroke-width="7"/>
  <text x="670" y="530" fill="#14152E" font-family="Helvetica,Arial,sans-serif"
        font-size="30" letter-spacing="4" text-anchor="middle" dominant-baseline="middle"
        opacity="0.75">HOTEL</text>
  <rect x="1060" y="740" width="420" height="300" fill="#F1EEE8" stroke="#14152E" stroke-width="7"/>
  <text x="1270" y="890" fill="#14152E" font-family="Helvetica,Arial,sans-serif"
        font-size="30" letter-spacing="4" text-anchor="middle" dominant-baseline="middle"
        opacity="0.75">CLUBHOUSE</text>
  <rect x="1540" y="320" width="420" height="300" fill="#F1EEE8" stroke="#14152E" stroke-width="7"/>
  <text x="1750" y="470" fill="#14152E" font-family="Helvetica,Arial,sans-serif"
        font-size="30" letter-spacing="4" text-anchor="middle" dominant-baseline="middle"
        opacity="0.75">WELLNESS</text>
  <rect x="740" y="1060" width="520" height="300" fill="#F1EEE8" stroke="#14152E" stroke-width="7"/>
  <text x="1000" y="1210" fill="#14152E" font-family="Helvetica,Arial,sans-serif"
        font-size="30" letter-spacing="4" text-anchor="middle" dominant-baseline="middle"
        opacity="0.75">EVENTS CAMPUS</text>
  <rect x="3.5" y="3.5" width="2393" height="1593" fill="none" stroke="#14152E" stroke-width="7"/>
  <text x="40" y="1560" fill="#14152E" font-family="Helvetica,Arial,sans-serif" font-size="26" letter-spacing="6" opacity="0.55">KANO GOLF RESORT — MASTERPLAN</text>
</svg>